<?xml version="1.0" encoding="utf-8"?>
<!-- Designed by Vexels.com - 2016 All Rights Reserved - https://vexels.com/terms-and-conditions/  -->

<svg version="1.0" id="Capa_1" xmlns="http://www.w3.org/2000/svg" xmlns:xlink="http://www.w3.org/1999/xlink" x="0px" y="0px"
	 width="1200px" height="1200px" viewBox="0 0 1200 1200" enable-background="new 0 0 1200 1200" xml:space="preserve">
<g>
	<g>
		<path fill="#B0B0B2" d="M213.934,318.063h-64.817c0,0-49.117,0.422-49.117,48.826c0,38.439,0,123.859,0,123.859h58.37
			l69.049-99.656L213.934,318.063z"/>
		<path fill="#C5C4C6" d="M154.994,492.449h121.015V366.008c0,0,2.42-47.945-62.075-47.945c-64.494,0-58.94,53.193-58.94,53.193
			V492.449z"/>
		<rect x="100.712" y="487.19" fill="#C7C534" width="77.59" height="393.999"/>
		<rect x="154.455" y="487.19" fill="#BDDA7C" width="23.847" height="393.999"/>
		<rect x="251.956" y="487.19" fill="#BDDA7C" width="23.846" height="393.999"/>
		<path fill="#1A1621" d="M162.108,881.901h108.911V371.188c0,0,2.179-46.718-55.866-46.718c-58.045,0-53.045,51.833-53.045,51.833
			V881.901z"/>
		<path fill="#C5C4C6" d="M253.292,468.193c0,17.691-14.342,32.033-32.033,32.033h-9.523c-17.691,0-32.033-14.342-32.033-32.033
			v-89.91c0-17.691,14.341-32.033,32.033-32.033h9.523c17.691,0,32.033,14.342,32.033,32.033V468.193z"/>
		<circle fill="#35313D" cx="216.099" cy="449.834" r="22.397"/>
		<circle fill="#35313D" cx="179.572" cy="427.973" r="22.396"/>
		<g>
			<circle fill="#ADADAF" cx="178.504" cy="425.838" r="22.396"/>
			<circle fill="#00ABBD" cx="178.504" cy="425.838" r="17.198"/>
		</g>
		<rect x="191.196" y="368.536" fill="#2F2D7B" width="21.69" height="13.914"/>
		<rect x="191.196" y="388.179" fill="#2F2D7B" width="21.69" height="13.914"/>
		<rect x="219.029" y="380.201" fill="#2F2D7B" width="22.123" height="1.117"/>
		<rect x="219.029" y="389.586" fill="#2F2D7B" width="22.123" height="1.117"/>
		<rect x="219.029" y="392.938" fill="#2F2D7B" width="22.123" height="1.118"/>
		<rect x="219.029" y="396.29" fill="#2F2D7B" width="22.123" height="1.118"/>
		<rect x="219.029" y="377.52" fill="#2F2D7B" width="22.123" height="1.117"/>
		<rect x="219.029" y="374.838" fill="#2F2D7B" width="22.123" height="1.117"/>
		<rect x="219.029" y="372.157" fill="#2F2D7B" width="22.123" height="1.117"/>
		<path fill="#2C2833" d="M162.108,881.937v-100.07c0,0,0.049,37.101-33.253,38.001c0,0-27.896-0.713-27.896-35.804
			c0,0-0.462,80.297,0.714,97.873H162.108z"/>
	</g>
	<g>
		<path opacity="0.3" fill="#84D2DF" d="M1031.627,492.647c0,0,22.65,72.745,29.625,100.103
			c-14.088,8.792-33.693,7.652-33.693,7.652s-42.294-91.104-43.905-92.127c-1.612-1.023,1.017-24.889,1.017-24.889
			s7.41-0.171,11.083-1.314c3.676-1.143,18.507-0.423,20.658,1.115C1018.565,484.726,1031.627,492.647,1031.627,492.647z"/>
		<path fill="#BD2734" d="M1059.428,591.21c-1.302-0.906-35.974,2.643-35.974,2.643s24.867,31.211,44.438,42.848
			C1071.596,623.477,1071.596,599.676,1059.428,591.21z"/>
		<polyline fill="#1C3135" points="278.085,817.572 313.635,797.707 503.096,819.174 653.448,787.249 853.154,813.391 
			891.84,785.16 1047.633,774.702 1077.578,795.897 1089.454,767.384 993.26,637.734 701.544,704.65 419.238,655.507 
			309.452,688.966 271.812,749.608 281.452,819.704 		"/>
		<path opacity="0.4" fill="#B7E2E2" d="M398.339,561.119c1.587-1.587,163.584-82.051,247.163-100.035
			c19.572,3.701,24.838,23.516,24.838,23.516l-245.089,99.282l-27.97-20.649"/>
		<path fill="#00ABBD" d="M259.228,816.531c0,0-37.028-90.987,33.856-156.583c0.528-37.028,17.455-51.842,44.963-68.236
			c27.508-16.401,60.834-31.211,60.834-31.211s0.005,10.05,33.859,10.578c34.385-17.988,179.327-86.224,198.899-93.104
			c19.572-6.874,23.278-13.224,17.457-14.811c-5.82-1.587-5.82-1.587-5.82-1.587s46.024-19.571,142.827-17.457
			c96.804,2.116,213.715,16.927,235.932,23.807c7.934,14.281,9.521,24.861,9.521,24.861s-28.565-5.29-33.855-6.877
			c-5.29-1.587-13.757,2.644-4.233,16.398c9.523,13.754,26.98,76.176,30.154,86.227c3.173,10.05,46.549,46.022,46.549,46.022
			s11.64,30.681,17.988,42.848c6.347,12.167,17.456,97.333,8.464,119.551c-17.457,1.587-19.044-1.059-19.044-1.059
			s-6.348-113.731-112.675-108.971c-89.399,4.76-107.914,74.59-108.97,130.131c-68.239,2.117-352.837,2.117-352.837,2.117
			s-1.587-69.823-42.848-106.324c-41.262-36.502-98.919-34.911-143.884,0c-44.965,35.441-34.913,108.441-34.913,106.854
			C281.452,818.117,257.107,818.648,259.228,816.531z"/>
		<path opacity="0.7" fill="#B7E2E2" d="M523.386,549.203c1.022-1.997,81.465-50.249,124.842-66.122
			c43.376-15.868,95.749-22.217,144.413-21.161c48.665,1.06,95.215-3.173,97.861,34.388c2.646,37.555-1.587,98.391-1.587,98.391
			l-380.87,24.861C508.045,619.559,511.749,571.951,523.386,549.203z"/>
		<path fill="#FED9B7" d="M295.247,647.652c0,0,18.128-11.159,44.577-14.865c2.117-26.448,12.695-48.136,12.695-48.136
			s-58.336,19.09-58.863,64.055"/>
		<polygon fill="#008886" points="437.084,647.003 430.552,643.738 979.825,616.94 995.662,619.235 		"/>
		<path fill="#B8DA92" d="M822.793,625.386c0,0-7.411-12.167,15.867-14.283c23.278-2.117,26.98,12.163,26.98,12.163L822.793,625.386
			z"/>
		<path fill="#5C8C44" d="M864.627,624.36c0,0,6.386,12.225-16.704,14.262c-23.087,2.04-25.66-12.292-25.66-12.292L864.627,624.36z"
			/>
		<path opacity="0.5" fill="#FFFFFF" d="M730.569,787.362c-85.589,0-199.875-1.378-201.603-1.4l-0.922-0.011l-0.438-0.812
			c-0.251-0.463-25.049-47.158-24.522-114.491c1.568-26.175,1.587-47.385,1.587-47.597h3.137c0,0.212-0.019,21.51-1.59,47.703
			c-0.479,61.581,20.487,105.641,23.731,112.083c17.094,0.202,256.605,2.99,289.163,0.059
			c61.267-78.159,69.963-181.049,68.723-185.64l1.125-0.303l1.21-1.608c0.573,0.431,0.728,1.099,0.809,1.696
			c0.94,7.247-8.289,110.251-69.818,188.324l-0.41,0.521l-0.662,0.067C809.703,787.01,773.793,787.362,730.569,787.362z"/>
		<path fill="#008886" d="M730.259,785.463c-85.588,0-199.875-1.378-201.602-1.399l-0.922-0.013l-0.438-0.812
			c-0.251-0.463-25.049-47.158-24.522-114.491c1.568-26.175,1.587-47.385,1.587-47.596h3.137c0,0.211-0.019,21.509-1.59,47.703
			c-0.479,61.58,20.487,105.641,23.731,112.082c17.094,0.202,256.604,2.991,289.163,0.059
			c61.267-78.158,69.963-181.049,68.723-185.64l1.124-0.303l1.21-1.608c0.573,0.432,0.728,1.1,0.808,1.696
			c0.94,7.248-8.289,110.251-69.817,188.324l-0.411,0.521l-0.661,0.067C809.394,785.111,773.483,785.463,730.259,785.463z"/>
		<path fill="#25C1DE" d="M503.282,756.047c0,0-29.093-117.964-143.884-105.797c-46.022,9.52-86.225,40.731-86.225,40.731
			s43.378-53.955,102.624-56.602C435.043,631.736,489.528,668.764,503.282,756.047z"/>
		<path fill="#25C1DE" d="M858.231,725.363c0,0,33.327-68.239,104.741-70.883c71.412-2.646,120.074,51.312,133.302,91.514
			c-10.05-62.949-43.373-116.908-131.715-114.791C904.783,633.32,866.164,687.275,858.231,725.363z"/>
		<g>
			<circle fill="#434345" cx="389.275" cy="782.722" r="96.651"/>
			<path fill="#6F8F91" d="M389.275,713.517c-38.219,0-69.204,30.984-69.204,69.204c0,38.22,30.985,69.204,69.204,69.204
				c38.22,0,69.204-30.984,69.204-69.204C458.479,744.502,427.495,713.517,389.275,713.517z M349.003,737.003
				c22.748-20.103,42.319-15.34,42.319-15.34l-11.107,33.328C380.214,754.991,347.815,738.054,349.003,737.003z M330.339,803.601
				c-10.118-28.62,1.632-44.983,1.632-44.983l26.739,22.791C358.71,781.408,330.866,805.096,330.339,803.601z M350.008,829.436
				c-1.274-0.95,29.64-20.49,29.64-20.49l13.797,32.308C393.444,841.254,374.33,847.61,350.008,829.436z M419.457,730.117
				c25.477,16.513,26.144,36.645,26.144,36.645l-35.089-1.752C410.512,765.01,418.125,729.256,419.457,730.117z M421.77,832.732
				c-1.29,0.926-10.55-34.452-10.55-34.452l34.973-3.36C446.193,794.919,446.459,815.061,421.77,832.732z"/>
			<circle fill="#434345" cx="388.724" cy="783.267" r="7.67"/>
		</g>
		<g>
			<circle fill="#434345" cx="964.344" cy="782.722" r="96.65"/>
			<path fill="#6F8F91" d="M964.344,713.517c-38.22,0-69.204,30.984-69.204,69.204c0,38.22,30.984,69.204,69.204,69.204
				s69.204-30.984,69.204-69.204C1033.548,744.502,1002.564,713.517,964.344,713.517z M924.071,737.003
				c22.748-20.103,42.318-15.34,42.318-15.34l-11.107,33.328C955.282,754.991,922.883,738.054,924.071,737.003z M905.407,803.601
				c-10.118-28.62,1.633-44.983,1.633-44.983l26.739,22.791C933.779,781.408,905.934,805.096,905.407,803.601z M925.076,829.436
				c-1.274-0.95,29.64-20.49,29.64-20.49l13.797,32.308C968.513,841.254,949.398,847.61,925.076,829.436z M994.525,730.117
				c25.477,16.513,26.144,36.645,26.144,36.645l-35.089-1.752C985.581,765.01,993.193,729.256,994.525,730.117z M996.838,832.732
				c-1.29,0.926-10.55-34.452-10.55-34.452l34.973-3.36C1021.261,794.919,1021.528,815.061,996.838,832.732z"/>
			<circle fill="#434345" cx="963.792" cy="783.267" r="7.67"/>
		</g>
		<path fill="#1C3135" d="M522.761,550.156c0,0-67.685,43.246-75.832,49.198c-8.147,5.951-10.816,21.936,8.462,21.933
			c17.862-0.003,53.907-1.413,53.907-1.413S521.821,552.037,522.761,550.156z"/>
		<path fill="#008886" d="M504.872,568.251c0,0-25.392-4.234-25.921,18.513c-0.528,22.745,26.978,28.035,26.978,28.035
			S508.047,581.475,504.872,568.251z"/>
		<circle fill="#3D3D3E" cx="979.692" cy="605.671" r="20.587"/>
	</g>
	<text transform="matrix(0 -1 1 0 146.0462 779.6981)" fill="#776100" font-family="'Raleway-Bold'" font-size="26.8537">RENEWABLE ENERGY</text>
	<g>
		<path fill="#2E2E2F" d="M293.844,449.148c0,0,8.149,3.189,3.72,11.515c-4.429,8.327-15.072,4.978-17.545,2.755
			c-2.474-2.224-2.296-8.778-2.296-8.778s4.251-5.315,4.783-5.315c0.532,0,2.126,0.177,2.835,0
			C286.049,449.148,293.844,449.148,293.844,449.148z"/>
		<g>
			<path fill="#595460" d="M217.632,431.219c0,0-20.125-0.671-20.125,22.137c0,16.1,21.466,14.087,21.466,14.087
				s6.708,0.671,30.187-3.354c23.479-4.025,30.858-0.671,30.858-0.671s0.007-16.396,14.758-14.087
				C282.031,443.964,232.39,429.206,217.632,431.219z"/>
			<path fill="#7E8083" d="M200.848,448.188c-0.078-0.856,4.076,6.25,29.893,3.805c25.817-2.446,47.829,3.261,47.829,3.261
				l-1.087,2.718c0,0-25.817-5.163-47.014-1.902C220.527,457.598,201.663,457.155,200.848,448.188z"/>
			<path fill="#3D3842" d="M199.761,452.807c0,0,1.902,13.316,13.316,13.044c11.414-0.271,20.382-2.174,33.426-3.261
				c13.044-1.087,28.806-1.63,28.806-1.63s-16.81-3.263-37.231-1.902C221.773,460.144,204.653,461.503,199.761,452.807z"/>
			<path fill="#B1B3B6" d="M212.261,435.415c0,0,49.187,6.522,73.374,14.675c2.99-1.087,2.99-1.087,2.99-1.087
				s-50.003-13.587-60.33-14.403C217.968,433.784,216.881,433.241,212.261,435.415z"/>
		</g>
		<g>
			<path fill="#C7C534" d="M293.239,456.752c0,0-6.348,1.904-3.174,6.348c3.174,4.444,45.704,9.522,53.956,33.009
				s8.887,20.313,8.887,20.313c5.713-1.904-2.539-36.817-24.756-44.434C305.934,464.37,293.239,456.752,293.239,456.752z"/>
			<path fill="#C7C534" d="M389.581,505.011c-4.745-6.327-16.276-1.654-19.835,12.191c-6.724,0.396-10.225-1.908-16.552-12.982
				c-2.372-1.185-5.537,1.187-5.537,1.187s2.374,18.195,20.172,19.381C385.628,525.975,394.327,511.339,389.581,505.011z
				 M374.379,517.588c2.374-5.141,9.27-14.159,10.852-7.83C386.813,516.087,374.379,517.588,374.379,517.588z"/>
			<path fill="#C7C534" d="M425.366,534.799c-4.745-6.327-16.276-1.654-19.835,12.191c-6.724,0.396-10.224-1.908-16.552-12.982
				c-2.372-1.185-5.537,1.187-5.537,1.187s2.374,18.195,20.172,19.381C421.412,555.763,430.112,541.127,425.366,534.799z
				 M410.164,547.376c2.374-5.141,9.27-14.159,10.852-7.829C422.598,545.875,410.164,547.376,410.164,547.376z"/>
			<path fill="#C7C534" d="M444.415,549.907c-4.745-6.327-16.276-1.654-19.835,12.191c-6.724,0.396-10.224-1.908-16.552-12.982
				c-2.372-1.185-5.537,1.187-5.537,1.187s2.374,18.196,20.172,19.381C440.461,570.87,449.161,556.235,444.415,549.907z
				 M429.213,562.484c2.374-5.141,9.27-14.159,10.852-7.829C441.647,560.983,429.213,562.484,429.213,562.484z"/>
			<path fill="#C7C534" d="M463.464,565.015c-4.745-6.327-16.276-1.654-19.835,12.19c-6.724,0.396-10.225-1.907-16.552-12.981
				c-2.372-1.186-5.537,1.187-5.537,1.187s2.374,18.196,20.172,19.382C459.51,585.979,468.21,571.343,463.464,565.015z
				 M448.261,577.592c2.374-5.141,9.27-14.159,10.852-7.829C460.696,576.091,448.261,577.592,448.261,577.592z"/>
			<path fill="#C7C534" d="M482.513,580.123c-4.745-6.326-16.276-1.653-19.835,12.191c-6.724,0.396-10.225-1.907-16.552-12.982
				c-2.372-1.186-5.537,1.187-5.537,1.187s2.374,18.197,20.172,19.383C478.559,601.088,487.258,586.451,482.513,580.123z
				 M467.31,592.701c2.374-5.142,9.27-14.16,10.852-7.83C479.744,591.2,467.31,592.701,467.31,592.701z"/>
			<path fill="#C7C534" d="M501.562,595.232c-4.745-6.326-16.276-1.653-19.835,12.191c-6.724,0.396-10.225-1.907-16.552-12.982
				c-2.372-1.185-5.537,1.187-5.537,1.187s2.374,18.197,20.172,19.383C497.608,616.196,506.307,601.559,501.562,595.232z
				 M486.359,607.81c2.374-5.142,9.27-14.16,10.852-7.831C498.793,606.309,486.359,607.81,486.359,607.81z"/>
			<path fill="#C7C534" d="M525.729,610.658c-4.745-6.326-16.276-1.653-19.835,12.191c-6.724,0.396-10.224-1.907-16.552-12.982
				c-2.372-1.185-5.537,1.187-5.537,1.187s2.374,18.197,20.172,19.383C521.775,631.623,530.474,616.985,525.729,610.658z
				 M510.526,623.236c2.374-5.142,9.27-14.16,10.852-7.831C522.96,621.735,510.526,623.236,510.526,623.236z"/>
			<path fill="#C7C534" d="M544.404,619.957c-5.817-5.357-16.305,1.338-17.285,15.598c-6.539,1.614-10.401-0.015-18.639-9.753
				c-2.548-0.733-5.228,2.176-5.228,2.176s5.647,17.461,23.363,15.387C544.332,641.291,550.222,625.314,544.404,619.957z
				 M531.745,635.091c1.398-5.487,6.538-15.611,9.245-9.675C543.698,631.352,531.745,635.091,531.745,635.091z"/>
			<path fill="#C7C534" d="M567.2,625.661c-6.664-4.256-15.82,4.169-14.29,18.381c-6.156,2.733-10.243,1.805-20.057-6.342
				c-2.637-0.276-4.766,3.056-4.766,3.056s8.614,16.205,25.694,11.063C570.861,646.678,573.866,629.919,567.2,625.661z
				 M557.383,642.777c0.417-5.647,3.706-16.513,7.411-11.143C568.498,637.004,557.383,642.777,557.383,642.777z"/>
			<path fill="#C7C534" d="M592.395,632.345c-6.664-4.256-15.82,4.169-14.29,18.381c-6.156,2.733-10.243,1.805-20.057-6.342
				c-2.637-0.276-4.766,3.056-4.766,3.056s8.614,16.205,25.695,11.064C596.057,653.363,599.061,636.603,592.395,632.345z
				 M582.579,649.461c0.417-5.647,3.706-16.513,7.411-11.143C593.694,643.689,582.579,649.461,582.579,649.461z"/>
			<path fill="#C7C534" d="M612.943,636.581c-7.156-3.363-15.152,6.169-11.808,20.066c-5.754,3.502-9.926,3.107-20.706-3.711
				c-2.65,0.065-4.334,3.644-4.334,3.644s10.625,14.962,26.903,7.668C619.275,656.954,620.1,639.947,612.943,636.581z
				 M605.408,654.817c-0.313-5.654,1.553-16.852,5.917-12.004C615.689,647.664,605.408,654.817,605.408,654.817z"/>
			<path fill="#C7C534" d="M637.624,638.638c-7.156-3.363-15.152,6.169-11.808,20.066c-5.754,3.502-9.926,3.107-20.706-3.711
				c-2.65,0.065-4.334,3.644-4.334,3.644s10.625,14.962,26.904,7.668C643.956,659.011,644.782,642.004,637.624,638.638z
				 M630.089,656.874c-0.312-5.654,1.553-16.852,5.918-12.004C640.37,649.721,630.089,656.874,630.089,656.874z"/>
			<path fill="#C7C534" d="M660.248,641.723c-7.156-3.363-15.153,6.169-11.808,20.066c-5.754,3.501-9.926,3.107-20.707-3.711
				c-2.65,0.065-4.334,3.644-4.334,3.644s10.626,14.962,26.904,7.668C666.581,662.096,667.406,645.089,660.248,641.723z
				 M652.713,659.959c-0.312-5.654,1.553-16.852,5.918-12.004C662.994,652.806,652.713,659.959,652.713,659.959z"/>
			<path fill="#C7C534" d="M685.444,645.322c-7.156-3.363-15.153,6.169-11.808,20.066c-5.754,3.501-9.926,3.107-20.707-3.711
				c-2.65,0.065-4.334,3.644-4.334,3.644s10.626,14.962,26.904,7.668C691.776,665.695,692.602,648.687,685.444,645.322z
				 M677.909,663.557c-0.312-5.654,1.553-16.852,5.918-12.004C688.19,656.404,677.909,663.557,677.909,663.557z"/>
			<path fill="#C7C534" d="M710.404,647.292c-7.156-3.363-15.153,6.169-11.808,20.066c-5.754,3.501-9.926,3.107-20.707-3.711
				c-2.65,0.065-4.334,3.644-4.334,3.644s10.626,14.962,26.904,7.668C716.737,667.665,717.562,650.658,710.404,647.292z
				 M702.869,665.528c-0.312-5.654,1.553-16.852,5.918-12.004C713.151,658.375,702.869,665.528,702.869,665.528z"/>
			<path fill="#C7C534" d="M736.022,650.576c-7.156-3.363-15.153,6.169-11.808,20.066c-5.754,3.502-9.926,3.107-20.707-3.711
				c-2.65,0.065-4.334,3.644-4.334,3.644s10.626,14.962,26.904,7.668C742.355,670.949,743.18,653.942,736.022,650.576z
				 M728.487,668.812c-0.312-5.654,1.553-16.852,5.918-12.004C738.769,661.659,728.487,668.812,728.487,668.812z"/>
			<path fill="#C7C534" d="M761.64,650.576c-7.156-3.363-15.153,6.169-11.808,20.066c-5.754,3.502-9.926,3.107-20.707-3.711
				c-2.65,0.065-4.334,3.644-4.334,3.644s10.626,14.962,26.904,7.668C767.973,670.949,768.798,653.942,761.64,650.576z
				 M754.105,668.812c-0.312-5.654,1.553-16.852,5.918-12.004C764.386,661.659,754.105,668.812,754.105,668.812z"/>
			<path fill="#C7C534" d="M782.449,645.27c-7.725-1.684-13.398,9.389-7.042,22.192c-4.829,4.695-8.984,5.239-21.013,0.994
				c-2.569,0.653-3.414,4.518-3.414,4.518s13.691,12.22,27.937,1.483C793.16,663.721,790.177,646.957,782.449,645.27z
				 M779.165,664.727c-1.563-5.443-2.239-16.775,3.095-13.021C787.595,655.462,779.165,664.727,779.165,664.727z"/>
			<path fill="#C7C534" d="M805.439,642.643c-7.725-1.684-13.398,9.389-7.042,22.193c-4.829,4.695-8.984,5.239-21.013,0.994
				c-2.569,0.653-3.414,4.518-3.414,4.518s13.691,12.22,27.937,1.483C816.151,661.094,813.168,644.331,805.439,642.643z
				 M802.155,662.1c-1.563-5.443-2.239-16.775,3.095-13.021C810.585,652.836,802.155,662.1,802.155,662.1z"/>
			<path fill="#C7C534" d="M830.4,640.016c-7.725-1.684-13.398,9.389-7.042,22.193c-4.829,4.695-8.984,5.239-21.013,0.994
				c-2.569,0.653-3.414,4.518-3.414,4.518s13.691,12.22,27.937,1.483C841.111,658.467,838.128,641.704,830.4,640.016z
				 M827.116,659.473c-1.563-5.443-2.239-16.775,3.095-13.021C835.546,650.209,827.116,659.473,827.116,659.473z"/>
			<path fill="#C7C534" d="M853.39,638.045c-7.725-1.684-13.398,9.389-7.042,22.193c-4.829,4.695-8.984,5.239-21.013,0.994
				c-2.569,0.653-3.414,4.518-3.414,4.518s13.691,12.22,27.937,1.483C864.101,656.497,861.119,639.733,853.39,638.045z
				 M850.106,657.502c-1.563-5.443-2.239-16.775,3.095-13.021C858.536,648.238,850.106,657.502,850.106,657.502z"/>
			<path fill="#C7C534" d="M876.38,632.133c-7.725-1.684-13.398,9.389-7.042,22.193c-4.829,4.695-8.984,5.239-21.013,0.994
				c-2.569,0.653-3.414,4.518-3.414,4.518s13.691,12.22,27.937,1.483C887.091,650.585,884.109,633.821,876.38,632.133z
				 M873.096,651.59c-1.563-5.443-2.239-16.775,3.095-13.021C881.526,642.326,873.096,651.59,873.096,651.59z"/>
			<path fill="#C7C534" d="M405.422,518.554c-4.745-6.328-16.288-1.685-19.848,12.158c-6.724,0.397-16.985-3.86-13.897-11.195
				c-2.372-1.185-5.537,1.187-5.537,1.187s-7.974,13.096,17.53,17.626C401.233,541.451,410.167,524.882,405.422,518.554z
				 M390.206,529.169c2.374-5.141,9.283-12.196,10.866-5.867C402.654,529.631,390.206,529.169,390.206,529.169z"/>
			<circle fill="#C7C534" cx="978.455" cy="607.035" r="11.192"/>
			<path fill="#7E7A31" d="M961.946,611.896c0,0,1.684-0.802,7.729-5.491c2.988-2.317,6.671-3.622,6.671-3.622
				s5.787-0.915,6.447,4.144c0.661,5.06-3.221,6.956-3.221,6.956s-9.471,3.942-11.448,2.939c-1.975-1.005-5.529-1.214-5.529-1.214
				L961.946,611.896z"/>
			<path fill="#C7C534" d="M877.921,656.05c0.665,0.443,10.637-0.665,16.179-4.654c5.541-3.989,58.955-32.579,72.695-36.347
				c0,0,1.773-4.655-3.324-3.103s-56.294,23.937-65.603,30.142c-9.308,6.205-13.519,9.086-17.952,8.865
				C875.482,650.731,877.921,656.05,877.921,656.05z"/>
		</g>
	</g>
</g>
</svg>
